# xmcd CD database file
#
# Track frame offsets:
#	150
#	17429
#	42748
#	63036
#	84307
#	105432
#	126269
#	143693
#	164479
#	185703
#	202165
#	223362
#
# Disc length: 3227 seconds
#
# Revision: 0
# Processed by: cddbd v1.5PL3 Copyright (c) Steve Scherf et al.
# Submitted via: CDex 1.51
#
DISCID=af0c990c
DTITLE=Sojiro - Sanctuary
DYEAR=1996
DGENRE=New Age
TTITLE0=(Japanese Title)
TTITLE1=(Japanese Title)
TTITLE2=(Japanese Title)
TTITLE3=(Japanese Title)
TTITLE4=(Japanese Title)
TTITLE5=(Japanese Title)
TTITLE6=(Japanese Title)
TTITLE7=(Japanese Title)
TTITLE8=(Japanese Title)
TTITLE9=(Japanese Title)
TTITLE10=(Japanese Title)
TTITLE11=(Japanese Title)
EXTD=YEAR: 1996
EXTT0=
EXTT1=
EXTT2=
EXTT3=
EXTT4=
EXTT5=
EXTT6=
EXTT7=
EXTT8=
EXTT9=
EXTT10=
EXTT11=
PLAYORDER=
